<svg xmlns="http://www.w3.org/2000/svg" width="24" height="28" viewBox="0 0 24 28" fill="none">
  <path d="M11.1293 27.0082C11.0206 26.9606 8.42447 25.8129 5.80478 23.9167C1.95271 21.1291 0 18.1733 0 15.1304V0H24V15.1304C24 18.1733 22.0473 21.1291 18.1962 23.9167C15.5766 25.8129 12.9805 26.9606 12.8717 27.0082L12.0005 27.3901L11.1293 27.0082ZM12.0005 26.7094L12.6152 26.44C12.7219 26.3934 15.2574 25.272 17.8238 23.4153C21.5045 20.7512 23.37 17.9636 23.37 15.1314V0.622963H0.631066V15.1304C0.631066 17.9636 2.49758 20.7512 6.17726 23.4143C8.7436 25.271 11.2791 26.3923 11.3859 26.4389L12.0005 26.7084V26.7094ZM2.1446 2.11706V15.1304C2.1446 20.7502 12.0005 25.0745 12.0005 25.0745C12.0005 25.0745 21.8564 20.7502 21.8564 15.1304V2.11706H2.1446Z" fill="#0245B9"/>
  <path d="M11.1704 4.60742L5.27734 10.4248V18.4818H13.4391L19.3322 12.6644V4.60742H11.1704ZM10.9908 16.0639H7.72567V12.8407H10.9908V16.0639ZM16.1861 14.7369L13.4391 17.4486V10.4238H6.36401L9.11094 7.71211H16.1861V14.7369Z" fill="white"/>
</svg>